<svg width="142" height="42" viewBox="0 0 142 42" fill="none" xmlns="http://www.w3.org/2000/svg">
<path d="M36.4 9.98756C37.3333 10.5264 37.3333 11.8736 36.4 12.4124L23.8 19.687C22.8667 20.2259 21.7 19.5523 21.7 18.4746L21.7 3.92538C21.7 2.84766 22.8667 2.17409 23.8 2.71295L36.4 9.98756Z" fill="#06B092"/>
<path d="M36.4 29.5875C37.3333 30.1264 37.3333 31.4736 36.4 32.0124L23.8 39.287C22.8667 39.8259 21.7 39.1523 21.7 38.0746L21.7 23.5254C21.7 22.4476 22.8667 21.7741 23.8 22.3129L36.4 29.5875Z" fill="#06B092"/>
<path d="M20.2999 19.7876C21.2332 20.3264 21.2332 21.6736 20.2999 22.2124L7.6999 29.487C6.76657 30.0259 5.5999 29.3523 5.5999 28.2746L5.5999 13.7254C5.5999 12.6477 6.76657 11.9741 7.6999 12.5129L20.2999 19.7876Z" fill="#01231D"/>
<path d="M46.104 30.1094C46.0181 30.0938 45.9556 30.0508 45.9165 29.9805C45.8774 29.9102 45.8579 29.832 45.8579 29.7461C45.8579 29.6758 45.8735 29.6133 45.9048 29.5586L47.3462 26.8047C47.354 26.7734 47.3657 26.6523 47.3813 26.4414C47.4048 26.2305 47.4282 25.9688 47.4517 25.6562C47.4751 25.3359 47.4985 24.9805 47.522 24.5898C47.5532 24.1992 47.5845 23.8125 47.6157 23.4297C47.647 23.0469 47.6743 22.6836 47.6978 22.3398C47.729 21.9883 47.7563 21.6953 47.7798 21.4609C47.7876 21.3672 47.7993 21.2266 47.8149 21.0391C47.8306 20.8438 47.8462 20.6211 47.8618 20.3711C47.8774 20.1211 47.897 19.8516 47.9204 19.5625C47.9438 19.2734 47.9673 18.9844 47.9907 18.6953L48.1548 16.2461C47.9438 16.293 47.7251 16.3438 47.4985 16.3984C47.272 16.4453 47.0493 16.4883 46.8306 16.5273C46.6196 16.5664 46.4165 16.6016 46.2212 16.6328C46.0337 16.6562 45.8696 16.668 45.729 16.668C45.6431 16.668 45.5767 16.6289 45.5298 16.5508C45.4907 16.4727 45.4712 16.3906 45.4712 16.3047C45.4712 16.2031 45.4946 16.1289 45.5415 16.082L48.5181 13.3047C48.7603 13.0859 48.9985 12.9102 49.2329 12.7773C49.4751 12.6367 49.7642 12.5273 50.1001 12.4492C50.436 12.3711 50.8462 12.3203 51.3306 12.2969C51.8228 12.2656 52.4438 12.25 53.1938 12.25C54.4751 12.25 55.6118 12.3828 56.604 12.6484C57.5962 12.9141 58.436 13.293 59.1235 13.7852C59.6313 14.1367 60.0845 14.5039 60.4829 14.8867C60.8813 15.2695 61.2173 15.6953 61.4907 16.1641C61.7642 16.625 61.9712 17.1367 62.1118 17.6992C62.2524 18.2539 62.3228 18.8828 62.3228 19.5859C62.3228 20.9219 62.1235 22.1094 61.7251 23.1484C61.3267 24.1875 60.7837 25.0977 60.0962 25.8789C59.4087 26.6523 58.604 27.3086 57.6821 27.8477C56.7681 28.3867 55.7876 28.8242 54.7407 29.1602C53.7017 29.4961 52.6235 29.7383 51.5063 29.8867C50.397 30.0352 49.3071 30.1094 48.2368 30.1094H46.104ZM52.9126 16L52.772 17.418C52.7251 17.9102 52.6743 18.4375 52.6196 19C52.5728 19.5547 52.5259 20.1211 52.479 20.6992C52.4321 21.2695 52.3853 21.8359 52.3384 22.3984C52.2915 22.9531 52.2485 23.4727 52.2095 23.957C52.1704 24.4414 52.1353 24.875 52.104 25.2578C52.0728 25.6406 52.0454 25.9453 52.022 26.1719L51.9868 26.5234C52.9321 26.5234 53.729 26.3711 54.3774 26.0664C55.0337 25.7617 55.5649 25.3438 55.9712 24.8125C56.3774 24.2734 56.6704 23.6445 56.8501 22.9258C57.0376 22.207 57.1313 21.4336 57.1313 20.6055C57.1313 20.0117 57.0493 19.4414 56.8853 18.8945C56.7212 18.3398 56.4829 17.8125 56.1704 17.3125C55.8579 16.8125 55.4751 16.4375 55.022 16.1875C54.5688 15.9375 54.0571 15.8125 53.4868 15.8125C53.3931 15.8125 53.2915 15.8359 53.1821 15.8828C53.0728 15.9219 52.9829 15.9609 52.9126 16ZM70.5845 16.4219C71.3267 16.4219 71.9985 16.5625 72.6001 16.8438C73.2095 17.1172 73.729 17.4766 74.1587 17.9219C74.5962 18.3594 74.9321 18.8516 75.1665 19.3984C75.4009 19.9453 75.5181 20.4922 75.5181 21.0391C75.5181 21.5234 75.3696 22.0117 75.0728 22.5039C74.7759 22.9883 74.3579 23.4258 73.8188 23.8164C73.2876 24.207 72.647 24.5234 71.897 24.7656C71.147 25.0078 70.3228 25.1289 69.4243 25.1289C68.9556 25.1289 68.4634 25.082 67.9478 24.9883C67.979 25.3242 68.0767 25.6133 68.2407 25.8555C68.4048 26.0977 68.6118 26.2969 68.8618 26.4531C69.1118 26.6094 69.3931 26.7266 69.7056 26.8047C70.0259 26.875 70.354 26.9102 70.6899 26.9102C71.0649 26.9102 71.4243 26.8789 71.7681 26.8164C72.1196 26.7461 72.4556 26.6562 72.7759 26.5469C73.0962 26.4375 73.4048 26.3164 73.7017 26.1836C73.9985 26.0508 74.2798 25.918 74.5454 25.7852C74.6157 25.7695 74.6743 25.7578 74.7212 25.75C74.7759 25.7344 74.8267 25.7266 74.8735 25.7266C74.8735 25.7266 74.8696 25.7891 74.8618 25.9141C74.8618 26.0391 74.8618 26.2148 74.8618 26.4414C74.8618 26.668 74.8579 26.9414 74.8501 27.2617C74.8501 27.582 74.8462 27.9375 74.8384 28.3281C74.8618 28.3672 74.8774 28.4062 74.8853 28.4453C74.8931 28.4844 74.897 28.5156 74.897 28.5391C74.897 28.6328 74.811 28.7344 74.6392 28.8438C74.4673 28.9531 74.2407 29.0664 73.9595 29.1836C73.686 29.3008 73.3696 29.4141 73.0103 29.5234C72.6587 29.6328 72.2993 29.7305 71.9321 29.8164C71.5649 29.9102 71.2095 29.9805 70.8657 30.0273C70.522 30.082 70.2212 30.1094 69.9634 30.1094C69.1196 30.1094 68.2993 29.9609 67.5024 29.6641C66.7134 29.375 66.0103 28.957 65.3931 28.4102C64.7837 27.8633 64.2954 27.1992 63.9282 26.418C63.561 25.6367 63.3774 24.7578 63.3774 23.7812C63.3774 22.7578 63.5532 21.8008 63.9048 20.9102C64.2563 20.0117 64.7485 19.2305 65.3813 18.5664C66.022 17.9023 66.7837 17.3789 67.6665 16.9961C68.5493 16.6133 69.522 16.4219 70.5845 16.4219ZM70.4438 19.5391C70.1235 19.5391 69.8267 19.6094 69.5532 19.75C69.2876 19.8828 69.0415 20.0781 68.8149 20.3359C68.5962 20.5859 68.4048 20.8906 68.2407 21.25C68.0767 21.6016 67.9438 21.9922 67.8423 22.4219C68.647 22.2812 69.3149 22.1328 69.8462 21.9766C70.3774 21.8203 70.8032 21.6641 71.1235 21.5078C71.4438 21.3438 71.6704 21.1836 71.8032 21.0273C71.936 20.8633 72.0024 20.707 72.0024 20.5586C72.0024 20.418 71.9478 20.2852 71.8384 20.1602C71.7368 20.0352 71.6079 19.9258 71.4517 19.832C71.2954 19.7383 71.1235 19.668 70.936 19.6211C70.7563 19.5664 70.5923 19.5391 70.4438 19.5391ZM85.3853 16.5391C85.4165 16.4609 85.4751 16.4219 85.561 16.4219C85.5767 16.4219 85.5923 16.4258 85.6079 16.4336C85.6235 16.4336 85.6392 16.4336 85.6548 16.4336C86.2407 16.6602 86.8423 16.8477 87.4595 16.9961C88.0767 17.1367 88.6899 17.2734 89.2993 17.4062C89.4478 17.4375 89.522 17.5234 89.522 17.6641C89.522 17.7656 89.4751 17.9219 89.3813 18.1328L84.5532 28.3984C84.4907 28.5391 84.436 28.6523 84.3892 28.7383C84.3423 28.8242 84.2954 28.8945 84.2485 28.9492C84.2017 29.0039 84.1509 29.043 84.0962 29.0664C84.0415 29.0898 83.9751 29.1094 83.897 29.125C83.3032 29.2422 82.7017 29.375 82.0923 29.5234C81.4829 29.6797 80.8501 29.8711 80.1938 30.0977C80.1782 30.0977 80.1665 30.0977 80.1587 30.0977C80.1509 30.1055 80.1431 30.1094 80.1353 30.1094H80.0532C80.0142 30.1094 79.9829 30.0938 79.9595 30.0625C79.936 30.0391 79.9204 30.0156 79.9126 29.9922C79.7954 29.6562 79.6587 29.2227 79.5024 28.6914C79.354 28.1602 79.1899 27.5664 79.0103 26.9102C78.8306 26.2539 78.6431 25.5547 78.4478 24.8125C78.2524 24.0703 78.0532 23.3164 77.8501 22.5508C77.647 21.7852 77.4438 21.0273 77.2407 20.2773C77.0454 19.5195 76.854 18.8047 76.6665 18.1328C76.5962 17.8906 76.561 17.7188 76.561 17.6172C76.561 17.5078 76.6235 17.4375 76.7485 17.4062C77.3579 17.2734 77.9907 17.1367 78.647 16.9961C79.3032 16.8477 79.9243 16.6602 80.5103 16.4336C80.5337 16.4258 80.5688 16.4219 80.6157 16.4219C80.7173 16.4219 80.772 16.4609 80.7798 16.5391L82.3267 24.4141C82.3657 24.3203 82.4321 24.1523 82.5259 23.9102C82.6196 23.6602 82.7329 23.3633 82.8657 23.0195C82.9985 22.6758 83.1431 22.2969 83.2993 21.8828C83.4634 21.4688 83.6274 21.0469 83.7915 20.6172C83.9634 20.1875 84.1313 19.7617 84.2954 19.3398C84.4595 18.9102 84.6118 18.5117 84.7524 18.1445C84.9009 17.7773 85.0298 17.4531 85.1392 17.1719C85.2485 16.8906 85.3306 16.6797 85.3853 16.5391ZM91.4556 29.3477C91.2993 29.3086 91.1938 29.25 91.1392 29.1719C91.0845 29.0859 91.0571 28.9922 91.0571 28.8906C91.0571 28.8672 91.0571 28.8516 91.0571 28.8438C91.0649 28.8359 91.0688 28.8203 91.0688 28.7969C91.1313 27.9531 91.1978 27.0703 91.2681 26.1484C91.3462 25.2188 91.4282 24.2773 91.5142 23.3242C91.6001 22.3633 91.686 21.4062 91.772 20.4531C91.8579 19.5 91.9438 18.5742 92.0298 17.6758H92.0181C91.9868 17.6758 91.897 17.7031 91.7485 17.7578C91.6079 17.8047 91.4438 17.8594 91.2563 17.9219C91.0767 17.9766 90.8931 18.0273 90.7056 18.0742C90.5181 18.1211 90.3657 18.1445 90.2485 18.1445C90.147 18.1445 90.0728 18.1055 90.0259 18.0273C89.9868 17.9492 89.9673 17.8633 89.9673 17.7695C89.9673 17.6992 89.979 17.6328 90.0024 17.5703C90.2134 16.9609 90.4321 16.3906 90.6587 15.8594C90.8853 15.3281 91.1118 14.7812 91.3384 14.2188C91.9321 13.8984 92.5493 13.6211 93.1899 13.3867C93.8306 13.1445 94.4751 12.9453 95.1235 12.7891C95.7798 12.625 96.4321 12.5039 97.0806 12.4258C97.729 12.3398 98.3579 12.2969 98.9673 12.2969C99.8188 12.2969 100.62 12.3867 101.37 12.5664C102.127 12.7461 102.784 13.0195 103.338 13.3867C103.901 13.7461 104.342 14.2031 104.663 14.7578C104.991 15.3047 105.155 15.9492 105.155 16.6914C105.155 17.0117 105.084 17.3203 104.944 17.6172C104.803 17.9141 104.62 18.1992 104.393 18.4727C104.174 18.7383 103.928 18.9883 103.655 19.2227C103.381 19.4492 103.112 19.6562 102.846 19.8438C103.221 20.1172 103.557 20.3672 103.854 20.5938C104.159 20.8125 104.417 21.043 104.627 21.2852C104.838 21.5273 104.999 21.8008 105.108 22.1055C105.217 22.4023 105.272 22.7656 105.272 23.1953C105.272 23.8516 105.155 24.4805 104.92 25.082C104.694 25.6758 104.377 26.2305 103.971 26.7461C103.573 27.2539 103.096 27.7148 102.542 28.1289C101.995 28.543 101.397 28.8984 100.749 29.1953C100.108 29.4844 99.4282 29.707 98.7095 29.8633C97.9985 30.0273 97.2798 30.1094 96.5532 30.1094C96.2876 30.1094 95.9321 30.082 95.4868 30.0273C95.0415 29.9727 94.5728 29.9062 94.0806 29.8281C93.5962 29.7578 93.1157 29.6758 92.6392 29.582C92.1704 29.4961 91.7759 29.418 91.4556 29.3477ZM96.8579 16.4922C96.7095 17.4141 96.5845 18.3516 96.4829 19.3047C96.3813 20.25 96.2915 21.1719 96.2134 22.0703C96.1431 22.9609 96.0806 23.8086 96.0259 24.6133C95.9712 25.418 95.9165 26.1367 95.8618 26.7695C96.1743 26.7695 96.5103 26.7539 96.8696 26.7227C97.2368 26.6836 97.6001 26.6211 97.9595 26.5352C98.3188 26.4492 98.6665 26.3398 99.0024 26.207C99.3462 26.0664 99.647 25.8945 99.9048 25.6914C100.163 25.4883 100.37 25.25 100.526 24.9766C100.682 24.6953 100.76 24.375 100.76 24.0156C100.76 23.7969 100.694 23.6055 100.561 23.4414C100.428 23.2695 100.256 23.125 100.045 23.0078C99.8423 22.8828 99.6157 22.7812 99.3657 22.7031C99.1157 22.6172 98.8696 22.5508 98.6274 22.5039C98.3931 22.4492 98.1743 22.4102 97.9712 22.3867C97.7759 22.3555 97.6274 22.332 97.5259 22.3164C97.4165 22.3008 97.3462 22.2617 97.3149 22.1992C97.2837 22.1367 97.2681 22.0586 97.2681 21.9648C97.2681 21.8633 97.3306 21.7109 97.4556 21.5078C97.5806 21.3047 97.7524 21.0273 97.9712 20.6758L98.4634 19.8906C98.6743 19.8125 98.9009 19.7148 99.1431 19.5977C99.3931 19.4805 99.6235 19.3477 99.8345 19.1992C100.045 19.043 100.221 18.8711 100.362 18.6836C100.502 18.4883 100.573 18.2773 100.573 18.0508C100.573 17.4102 100.432 16.9219 100.151 16.5859C99.8774 16.2422 99.479 16.0703 98.9556 16.0703C98.3618 16.0703 97.6626 16.2109 96.8579 16.4922ZM116.124 19.9609C115.959 19.9453 115.776 19.9297 115.573 19.9141C115.37 19.8906 115.155 19.8789 114.928 19.8789C114.584 19.8789 114.233 19.9102 113.874 19.9727C113.522 20.0273 113.194 20.1406 112.889 20.3125C112.584 20.4844 112.323 20.7227 112.104 21.0273C111.885 21.3242 111.745 21.7109 111.682 22.1875C111.627 22.7656 111.581 23.2422 111.542 23.6172C111.51 23.9844 111.487 24.2891 111.471 24.5312C111.456 24.7656 111.44 24.957 111.424 25.1055C111.417 25.2461 111.409 25.3789 111.401 25.5039C111.401 25.5352 111.393 25.6211 111.377 25.7617C111.37 25.9023 111.354 26.0664 111.331 26.2539C111.307 26.4414 111.284 26.6445 111.26 26.8633C111.245 27.082 111.225 27.2852 111.202 27.4727C111.178 27.6602 111.159 27.8242 111.143 27.9648C111.135 28.1055 111.131 28.1914 111.131 28.2227C111.131 28.2852 111.131 28.3398 111.131 28.3867C111.139 28.4258 111.143 28.4648 111.143 28.5039C111.143 28.5664 111.112 28.6211 111.049 28.668C110.995 28.707 110.866 28.7539 110.663 28.8086L107.557 29.9219C107.471 29.9531 107.358 29.9922 107.217 30.0391C107.077 30.0859 106.94 30.1094 106.807 30.1094C106.698 30.1094 106.6 30.082 106.514 30.0273C106.436 29.9727 106.397 29.8789 106.397 29.7461L107.405 18.1328C107.428 17.875 107.456 17.6992 107.487 17.6055C107.526 17.5039 107.616 17.4375 107.756 17.4062C108.467 17.2656 109.202 17.125 109.959 16.9844C110.717 16.8359 111.452 16.6484 112.163 16.4219C112.225 16.4219 112.26 16.4336 112.268 16.457C112.284 16.4727 112.292 16.5 112.292 16.5391C112.292 16.5547 112.288 16.5781 112.28 16.6094C112.28 16.6406 112.268 16.7109 112.245 16.8203C112.229 16.9297 112.202 17.0977 112.163 17.3242C112.131 17.543 112.084 17.8516 112.022 18.25C112.381 17.9688 112.776 17.7109 113.206 17.4766C113.643 17.2422 114.081 17.043 114.518 16.8789C114.956 16.707 115.377 16.5742 115.784 16.4805C116.19 16.3789 116.545 16.3281 116.85 16.3281L116.124 19.9609ZM123.272 30.1094C122.17 30.1094 121.202 29.9297 120.366 29.5703C119.538 29.2109 118.842 28.7344 118.28 28.1406C117.717 27.5391 117.295 26.8516 117.014 26.0781C116.733 25.2969 116.592 24.4883 116.592 23.6523C116.592 22.8164 116.729 22.0234 117.002 21.2734C117.276 20.5156 117.659 19.8398 118.151 19.2461C118.643 18.6445 119.233 18.1445 119.92 17.7461C120.608 17.3398 121.366 17.0664 122.194 16.9258C122.319 16.918 122.381 16.8906 122.381 16.8438C122.381 16.7578 122.37 16.6797 122.346 16.6094C122.331 16.5312 122.323 16.4648 122.323 16.4102C122.323 16.3242 122.338 16.2656 122.37 16.2344C122.401 16.2031 122.436 16.1875 122.475 16.1875C123.967 16.1875 125.237 16.3594 126.284 16.7031C127.331 17.0391 128.182 17.5 128.838 18.0859C129.495 18.6719 129.971 19.3633 130.268 20.1602C130.565 20.957 130.713 21.8125 130.713 22.7266C130.713 23.8906 130.518 24.9297 130.127 25.8438C129.737 26.7578 129.202 27.5312 128.522 28.1641C127.85 28.7969 127.061 29.2773 126.155 29.6055C125.256 29.9414 124.295 30.1094 123.272 30.1094ZM121.104 23.5234C121.104 23.9453 121.147 24.3633 121.233 24.7773C121.327 25.1914 121.475 25.5664 121.678 25.9023C121.889 26.2383 122.163 26.5117 122.499 26.7227C122.834 26.9258 123.252 27.0273 123.752 27.0273C124.112 27.0117 124.424 26.9336 124.69 26.793C124.963 26.6445 125.198 26.457 125.393 26.2305C125.588 25.9961 125.749 25.7344 125.874 25.4453C126.006 25.1562 126.108 24.8594 126.178 24.5547C126.256 24.2422 126.311 23.9375 126.342 23.6406C126.374 23.3438 126.389 23.0742 126.389 22.832C126.389 22.4258 126.327 22.0273 126.202 21.6367C126.084 21.2461 125.909 20.9023 125.674 20.6055C125.44 20.3086 125.147 20.0703 124.795 19.8906C124.452 19.7031 124.053 19.6094 123.6 19.6094C123.131 19.6094 122.737 19.75 122.417 20.0312C122.096 20.3047 121.838 20.6445 121.643 21.0508C121.456 21.457 121.319 21.8867 121.233 22.3398C121.147 22.7852 121.104 23.1797 121.104 23.5234ZM132.284 26.2656C132.284 26.2578 132.28 26.2539 132.272 26.2539C132.272 26.2461 132.272 26.2383 132.272 26.2305C132.272 26.1289 132.327 26.0781 132.436 26.0781C132.506 26.0781 132.569 26.1055 132.624 26.1602C132.936 26.457 133.292 26.6992 133.69 26.8867C134.096 27.0742 134.534 27.168 135.002 27.168C135.127 27.168 135.272 27.1562 135.436 27.1328C135.6 27.1016 135.756 27.0547 135.905 26.9922C136.053 26.9297 136.174 26.8477 136.268 26.7461C136.37 26.6367 136.42 26.5039 136.42 26.3477C136.42 26.1758 136.377 26.0195 136.292 25.8789C136.206 25.7305 136.092 25.6094 135.952 25.5156C135.874 25.4609 135.737 25.3672 135.542 25.2344C135.346 25.0938 135.135 24.9453 134.909 24.7891C134.69 24.6328 134.479 24.4844 134.276 24.3438C134.081 24.2031 133.944 24.1016 133.866 24.0391C133.514 23.7734 133.233 23.5039 133.022 23.2305C132.819 22.957 132.663 22.6758 132.553 22.3867C132.444 22.0898 132.374 21.7812 132.342 21.4609C132.311 21.1406 132.295 20.8008 132.295 20.4414C132.295 19.8945 132.44 19.3789 132.729 18.8945C133.018 18.4102 133.397 17.9844 133.866 17.6172C134.342 17.25 134.881 16.9609 135.483 16.75C136.084 16.5312 136.698 16.4219 137.323 16.4219C137.838 16.4219 138.346 16.5 138.846 16.6562C139.346 16.8125 139.811 17.0781 140.241 17.4531C140.28 17.9453 140.307 18.4297 140.323 18.9062C140.338 19.3828 140.362 19.8828 140.393 20.4062C140.393 20.5078 140.37 20.5781 140.323 20.6172C140.276 20.6484 140.221 20.6641 140.159 20.6641C140.104 20.6641 140.057 20.6445 140.018 20.6055C139.838 20.4336 139.655 20.2656 139.467 20.1016C139.28 19.9297 139.081 19.7812 138.87 19.6562C138.667 19.5234 138.448 19.418 138.213 19.3398C137.979 19.2539 137.729 19.2109 137.463 19.2109C137.299 19.2109 137.135 19.2266 136.971 19.2578C136.807 19.2812 136.659 19.332 136.526 19.4102C136.393 19.4805 136.284 19.5781 136.198 19.7031C136.12 19.8281 136.081 19.9883 136.081 20.1836C136.081 20.4102 136.108 20.6055 136.163 20.7695C136.217 20.9336 136.346 21.0938 136.549 21.25L138.729 22.7266C139.127 23 139.448 23.2695 139.69 23.5352C139.94 23.793 140.135 24.0508 140.276 24.3086C140.417 24.5664 140.51 24.8242 140.557 25.082C140.612 25.332 140.639 25.582 140.639 25.832C140.639 26.5352 140.475 27.1562 140.147 27.6953C139.827 28.2266 139.409 28.6719 138.893 29.0312C138.377 29.3828 137.792 29.6484 137.135 29.8281C136.487 30.0156 135.834 30.1094 135.178 30.1094C134.678 30.1094 134.194 30.0547 133.725 29.9453C133.264 29.8438 132.834 29.6836 132.436 29.4648L132.284 26.2656Z" fill="#01231D"/>
</svg>
