<svg width="234" height="42" viewBox="0 0 234 42" fill="none" xmlns="http://www.w3.org/2000/svg">
<path d="M36.4 9.98756C37.3333 10.5264 37.3333 11.8736 36.4 12.4124L23.8 19.687C22.8667 20.2259 21.7 19.5523 21.7 18.4746L21.7 3.92538C21.7 2.84766 22.8667 2.17409 23.8 2.71295L36.4 9.98756Z" fill="white"/>
<path d="M36.4 29.5875C37.3333 30.1264 37.3333 31.4736 36.4 32.0124L23.8 39.287C22.8667 39.8259 21.7 39.1523 21.7 38.0746L21.7 23.5254C21.7 22.4476 22.8667 21.7741 23.8 22.3129L36.4 29.5875Z" fill="white"/>
<path d="M20.2999 19.7876C21.2332 20.3264 21.2332 21.6736 20.2999 22.2124L7.6999 29.487C6.76657 30.0259 5.5999 29.3523 5.5999 28.2746L5.5999 13.7254C5.5999 12.6477 6.76657 11.9741 7.6999 12.5129L20.2999 19.7876Z" fill="#01231D"/>
<path d="M68.9 9.98756C69.8333 10.5264 69.8333 11.8736 68.9 12.4124L56.3 19.687C55.3667 20.2259 54.2 19.5523 54.2 18.4746V3.92538C54.2 2.84766 55.3667 2.17409 56.3 2.71295L68.9 9.98756Z" fill="white"/>
<path d="M68.9 29.5875C69.8333 30.1264 69.8333 31.4736 68.9 32.0124L56.3 39.287C55.3667 39.8259 54.2 39.1523 54.2 38.0746V23.5254C54.2 22.4476 55.3667 21.7741 56.3 22.3129L68.9 29.5875Z" fill="white"/>
<path d="M52.7999 19.7876C53.7332 20.3264 53.7332 21.6736 52.7999 22.2124L40.1999 29.487C39.2666 30.0259 38.0999 29.3523 38.0999 28.2746V13.7254C38.0999 12.6477 39.2666 11.9741 40.1999 12.5129L52.7999 19.7876Z" fill="#01231D"/>
<path d="M101.4 9.98756C102.333 10.5264 102.333 11.8736 101.4 12.4124L88.8 19.687C87.8667 20.2259 86.7 19.5523 86.7 18.4746V3.92538C86.7 2.84766 87.8667 2.17409 88.8 2.71295L101.4 9.98756Z" fill="white"/>
<path d="M101.4 29.5875C102.333 30.1264 102.333 31.4736 101.4 32.0124L88.8 39.287C87.8667 39.8259 86.7 39.1523 86.7 38.0746V23.5254C86.7 22.4476 87.8667 21.7741 88.8 22.3129L101.4 29.5875Z" fill="white"/>
<path d="M85.2999 19.7876C86.2332 20.3264 86.2332 21.6736 85.2999 22.2124L72.6999 29.487C71.7666 30.0259 70.5999 29.3523 70.5999 28.2746V13.7254C70.5999 12.6477 71.7666 11.9741 72.6999 12.5129L85.2999 19.7876Z" fill="#01231D"/>
<path d="M133.9 9.98756C134.833 10.5264 134.833 11.8736 133.9 12.4124L121.3 19.687C120.367 20.2259 119.2 19.5523 119.2 18.4746V3.92538C119.2 2.84766 120.367 2.17409 121.3 2.71295L133.9 9.98756Z" fill="white"/>
<path d="M133.9 29.5875C134.833 30.1264 134.833 31.4736 133.9 32.0124L121.3 39.287C120.367 39.8259 119.2 39.1523 119.2 38.0746V23.5254C119.2 22.4476 120.367 21.7741 121.3 22.3129L133.9 29.5875Z" fill="white"/>
<path d="M117.8 19.7876C118.733 20.3264 118.733 21.6736 117.8 22.2124L105.2 29.487C104.267 30.0259 103.1 29.3523 103.1 28.2746V13.7254C103.1 12.6477 104.267 11.9741 105.2 12.5129L117.8 19.7876Z" fill="#01231D"/>
<path d="M166.4 9.98756C167.333 10.5264 167.333 11.8736 166.4 12.4124L153.8 19.687C152.867 20.2259 151.7 19.5523 151.7 18.4746V3.92538C151.7 2.84766 152.867 2.17409 153.8 2.71295L166.4 9.98756Z" fill="white"/>
<path d="M166.4 29.5875C167.333 30.1264 167.333 31.4736 166.4 32.0124L153.8 39.287C152.867 39.8259 151.7 39.1523 151.7 38.0746V23.5254C151.7 22.4476 152.867 21.7741 153.8 22.3129L166.4 29.5875Z" fill="white"/>
<path d="M150.3 19.7876C151.233 20.3264 151.233 21.6736 150.3 22.2124L137.7 29.487C136.767 30.0259 135.6 29.3523 135.6 28.2746V13.7254C135.6 12.6477 136.767 11.9741 137.7 12.5129L150.3 19.7876Z" fill="#01231D"/>
<path d="M198.9 9.98756C199.833 10.5264 199.833 11.8736 198.9 12.4124L186.3 19.687C185.367 20.2259 184.2 19.5523 184.2 18.4746V3.92538C184.2 2.84766 185.367 2.17409 186.3 2.71295L198.9 9.98756Z" fill="white"/>
<path d="M198.9 29.5875C199.833 30.1264 199.833 31.4736 198.9 32.0124L186.3 39.287C185.367 39.8259 184.2 39.1523 184.2 38.0746V23.5254C184.2 22.4476 185.367 21.7741 186.3 22.3129L198.9 29.5875Z" fill="white"/>
<path d="M182.8 19.7876C183.733 20.3264 183.733 21.6736 182.8 22.2124L170.2 29.487C169.267 30.0259 168.1 29.3523 168.1 28.2746V13.7254C168.1 12.6477 169.267 11.9741 170.2 12.5129L182.8 19.7876Z" fill="#01231D"/>
<path d="M231.4 9.98756C232.333 10.5264 232.333 11.8736 231.4 12.4124L218.8 19.687C217.867 20.2259 216.7 19.5523 216.7 18.4746V3.92538C216.7 2.84766 217.867 2.17409 218.8 2.71295L231.4 9.98756Z" fill="white"/>
<path d="M231.4 29.5875C232.333 30.1264 232.333 31.4736 231.4 32.0124L218.8 39.287C217.867 39.8259 216.7 39.1523 216.7 38.0746V23.5254C216.7 22.4476 217.867 21.7741 218.8 22.3129L231.4 29.5875Z" fill="white"/>
<path d="M215.3 19.7876C216.233 20.3264 216.233 21.6736 215.3 22.2124L202.7 29.487C201.767 30.0259 200.6 29.3523 200.6 28.2746V13.7254C200.6 12.6477 201.767 11.9741 202.7 12.5129L215.3 19.7876Z" fill="#01231D"/>
</svg>
