<svg width="268" height="55" viewBox="0 0 268 55" fill="none" xmlns="http://www.w3.org/2000/svg">
<rect x="0.510102" y="9.08123" width="33.4502" height="43.5983" rx="1.81737" transform="rotate(-15 0.510102 9.08123)" fill="white" stroke="black" stroke-width="0.8"/>
<rect x="4.89017" y="11.7902" width="33.4502" height="43.5983" rx="1.81737" transform="rotate(-15 4.89017 11.7902)" fill="white" stroke="black" stroke-width="0.8"/>
<line x1="11.8641" y1="18.3721" x2="34.4519" y2="12.3197" stroke="black" stroke-width="0.8"/>
<line x1="12.9489" y1="22.4207" x2="35.5367" y2="16.3684" stroke="black" stroke-width="0.8"/>
<line x1="14.0337" y1="26.4699" x2="28.9502" y2="22.473" stroke="black" stroke-width="0.8"/>
<line x1="15.1188" y1="30.5185" x2="37.7066" y2="24.4661" stroke="black" stroke-width="0.8"/>
<line x1="16.2036" y1="34.567" x2="31.1201" y2="30.5702" stroke="black" stroke-width="0.8"/>
<line x1="17.2884" y1="38.6156" x2="39.8762" y2="32.5632" stroke="black" stroke-width="0.8"/>
<mask id="mask0_377_976" style="mask-type:alpha" maskUnits="userSpaceOnUse" x="30" y="17" width="8" height="8">
<rect x="30.8116" y="19.1908" width="5.29464" height="5.29464" transform="rotate(-15 30.8116 19.1908)" fill="#D9D9D9"/>
</mask>
<g mask="url(#mask0_377_976)">
<path d="M33.6335 21.5874L33.7222 21.0681L34.1276 20.7317L33.6083 20.643L33.2719 20.2377L33.1832 20.7569L32.7778 21.0934L33.2971 21.1821L33.6335 21.5874ZM33.9083 22.613L33.0637 21.5863L31.7522 21.3682L32.7789 20.5235L32.9971 19.2121L33.8417 20.2387L35.1532 20.4569L34.1265 21.3016L33.9083 22.613ZM35.7228 22.5825L35.3004 22.0692L34.6447 21.9601L35.158 21.5378L35.2671 20.882L35.6894 21.3954L36.3452 21.5044L35.8318 21.9268L35.7228 22.5825Z" fill="#0E0A2B"/>
</g>
<mask id="mask1_377_976" style="mask-type:alpha" maskUnits="userSpaceOnUse" x="33" y="26" width="7" height="7">
<rect x="33.0956" y="27.7144" width="5.29464" height="5.29464" transform="rotate(-15 33.0956 27.7144)" fill="#D9D9D9"/>
</mask>
<g mask="url(#mask1_377_976)">
<path d="M35.9116 30.0902L36.0003 29.571L36.4057 29.2345L35.8864 29.1458L35.5499 28.7405L35.4613 29.2598L35.0559 29.5962L35.5752 29.6849L35.9116 30.0902ZM36.1864 31.1159L35.3418 30.0892L34.0303 29.871L35.057 29.0263L35.2751 27.7149L36.1198 28.7416L37.4313 28.9597L36.4046 29.8044L36.1864 31.1159ZM38.0008 31.0853L37.5785 30.572L36.9228 30.4629L37.4361 30.0406L37.5452 29.3848L37.9675 29.8982L38.6232 30.0073L38.1099 30.4296L38.0008 31.0853Z" fill="#0E0A2B"/>
</g>
<path d="M19.4637 46.7346C19.6024 47.0088 19.7705 47.7758 20.4081 47.6912C21.316 47.5708 22.1746 46.4107 22.6691 45.8373C22.7934 45.6932 22.9118 45.5454 23.0266 45.3959C23.1021 45.2978 23.1019 45.1207 23.2317 45.0913C23.2642 45.084 23.2704 45.1344 23.2842 45.1589C23.3721 45.3143 23.5642 45.7384 23.6111 45.8441C23.7139 46.0756 23.8546 46.6284 24.2205 46.7273C25.2608 47.0086 26.9723 45.4315 27.5492 44.9425C28.5332 44.1086 29.5251 43.1194 30.1474 42.0574C30.5276 41.4086 29.9951 42.3136 29.9486 42.5139C29.8736 42.8367 29.6171 43.9436 30.1156 44.2069C31.3649 44.8669 33.7436 42.6261 34.395 42.033C34.7987 41.6653 35.1752 41.2721 35.5008 40.8534C35.7139 40.5793 36.1225 39.8896 35.7531 39.9122C35.1349 39.9499 35.1715 41.3345 35.2068 41.5322C35.6134 43.8098 39.9893 39.7319 40.7198 39.1478C41.5542 38.4805 41.6515 38.336 41.3228 39.1302C41.1466 39.5559 41.0903 39.9404 40.9772 40.3653" stroke="black" stroke-width="0.8" stroke-linecap="round"/>
<path d="M58.0176 38.6633V15.3906H67.1994C68.9646 15.3906 70.4684 15.7277 71.7108 16.402C72.9532 17.0686 73.9002 17.9966 74.5517 19.186C75.2108 20.3679 75.5403 21.7315 75.5403 23.277C75.5403 24.8224 75.207 26.186 74.5403 27.3679C73.8737 28.5497 72.9078 29.4701 71.6426 30.1292C70.385 30.7883 68.8623 31.1179 67.0744 31.1179H61.2221V27.1747H66.279C67.2259 27.1747 68.0062 27.0118 68.6199 26.686C69.2411 26.3527 69.7032 25.8944 70.0062 25.311C70.3168 24.7201 70.4721 24.0421 70.4721 23.277C70.4721 22.5042 70.3168 21.83 70.0062 21.2542C69.7032 20.6709 69.2411 20.2201 68.6199 19.902C67.9987 19.5762 67.2108 19.4133 66.2562 19.4133H62.9381V38.6633H58.0176ZM78.6454 38.6633V21.2088H83.3386V24.2542H83.5204C83.8386 23.1709 84.3727 22.3527 85.1227 21.7997C85.8727 21.2391 86.7364 20.9588 87.7136 20.9588C87.956 20.9588 88.2174 20.9739 88.4977 21.0042C88.778 21.0345 89.0242 21.0762 89.2364 21.1292V25.4247C89.0091 25.3565 88.6947 25.2959 88.2932 25.2429C87.8917 25.1898 87.5242 25.1633 87.1909 25.1633C86.4788 25.1633 85.8424 25.3186 85.2818 25.6292C84.7288 25.9323 84.2894 26.3565 83.9636 26.902C83.6454 27.4474 83.4864 28.0762 83.4864 28.7883V38.6633H78.6454ZM98.8131 39.0042C97.0479 39.0042 95.5214 38.6292 94.2335 37.8792C92.9532 37.1216 91.9646 36.0686 91.2676 34.7201C90.5706 33.3641 90.2221 31.7921 90.2221 30.0042C90.2221 28.2012 90.5706 26.6254 91.2676 25.277C91.9646 23.9209 92.9532 22.8679 94.2335 22.1179C95.5214 21.3603 97.0479 20.9815 98.8131 20.9815C100.578 20.9815 102.101 21.3603 103.381 22.1179C104.669 22.8679 105.662 23.9209 106.359 25.277C107.055 26.6254 107.404 28.2012 107.404 30.0042C107.404 31.7921 107.055 33.3641 106.359 34.7201C105.662 36.0686 104.669 37.1216 103.381 37.8792C102.101 38.6292 100.578 39.0042 98.8131 39.0042ZM98.8358 35.2542C99.6388 35.2542 100.309 35.027 100.847 34.5724C101.385 34.1103 101.79 33.4815 102.063 32.686C102.343 31.8906 102.484 30.9853 102.484 29.9701C102.484 28.955 102.343 28.0497 102.063 27.2542C101.79 26.4588 101.385 25.83 100.847 25.3679C100.309 24.9057 99.6388 24.6747 98.8358 24.6747C98.0252 24.6747 97.3434 24.9057 96.7903 25.3679C96.2449 25.83 95.832 26.4588 95.5517 27.2542C95.279 28.0497 95.1426 28.955 95.1426 29.9701C95.1426 30.9853 95.279 31.8906 95.5517 32.686C95.832 33.4815 96.2449 34.1103 96.7903 34.5724C97.3434 35.027 98.0252 35.2542 98.8358 35.2542ZM110.643 38.6633V15.3906H119.824C121.582 15.3906 123.082 15.705 124.324 16.3338C125.574 16.955 126.525 17.8376 127.177 18.9815C127.836 20.1179 128.165 21.455 128.165 22.9929C128.165 24.5383 127.832 25.8679 127.165 26.9815C126.499 28.0876 125.533 28.936 124.268 29.527C123.01 30.1179 121.487 30.4133 119.699 30.4133H113.552V26.4588H118.904C119.843 26.4588 120.624 26.33 121.245 26.0724C121.866 25.8148 122.328 25.4285 122.631 24.9133C122.942 24.3982 123.097 23.758 123.097 22.9929C123.097 22.2201 122.942 21.5686 122.631 21.0383C122.328 20.508 121.862 20.1065 121.234 19.8338C120.612 19.5535 119.828 19.4133 118.881 19.4133H115.563V38.6633H110.643ZM123.211 28.0724L128.995 38.6633H123.563L117.904 28.0724H123.211ZM139.225 39.0042C137.43 39.0042 135.884 38.6406 134.589 37.9133C133.301 37.1785 132.308 36.1406 131.611 34.7997C130.914 33.4512 130.566 31.8565 130.566 30.0156C130.566 28.2201 130.914 26.6444 131.611 25.2883C132.308 23.9323 133.289 22.8754 134.555 22.1179C135.827 21.3603 137.32 20.9815 139.032 20.9815C140.183 20.9815 141.255 21.1671 142.248 21.5383C143.248 21.902 144.119 22.4512 144.861 23.186C145.611 23.9209 146.195 24.8451 146.611 25.9588C147.028 27.0648 147.236 28.3603 147.236 29.8451V31.1747H132.498V28.1747H142.68C142.68 27.4777 142.528 26.8603 142.225 26.3224C141.922 25.7845 141.502 25.3641 140.964 25.061C140.433 24.7504 139.816 24.5951 139.111 24.5951C138.377 24.5951 137.725 24.7656 137.157 25.1065C136.596 25.4398 136.157 25.8906 135.839 26.4588C135.52 27.0194 135.358 27.6444 135.35 28.3338V31.186C135.35 32.0497 135.509 32.7959 135.827 33.4247C136.153 34.0535 136.611 34.5383 137.202 34.8792C137.793 35.2201 138.494 35.3906 139.305 35.3906C139.842 35.3906 140.335 35.3148 140.782 35.1633C141.229 35.0118 141.611 34.7845 141.93 34.4815C142.248 34.1785 142.49 33.8073 142.657 33.3679L147.134 33.6633C146.907 34.7391 146.441 35.6785 145.736 36.4815C145.039 37.277 144.138 37.8982 143.032 38.3451C141.933 38.7845 140.664 39.0042 139.225 39.0042ZM164.918 26.186L160.486 26.4588C160.411 26.08 160.248 25.7391 159.998 25.436C159.748 25.1254 159.418 24.8792 159.009 24.6974C158.608 24.508 158.127 24.4133 157.566 24.4133C156.816 24.4133 156.183 24.5724 155.668 24.8906C155.153 25.2012 154.895 25.6179 154.895 26.1406C154.895 26.5573 155.062 26.9095 155.395 27.1974C155.729 27.4853 156.301 27.7163 157.111 27.8906L160.27 28.527C161.967 28.8754 163.233 29.436 164.066 30.2088C164.899 30.9815 165.316 31.9966 165.316 33.2542C165.316 34.3982 164.979 35.402 164.305 36.2656C163.638 37.1292 162.721 37.8035 161.555 38.2883C160.395 38.7656 159.058 39.0042 157.543 39.0042C155.233 39.0042 153.392 38.5232 152.02 37.561C150.657 36.5913 149.858 35.2732 149.623 33.6065L154.384 33.3565C154.528 34.061 154.877 34.5989 155.43 34.9701C155.983 35.3338 156.691 35.5156 157.555 35.5156C158.403 35.5156 159.085 35.3527 159.6 35.027C160.123 34.6936 160.388 34.2656 160.395 33.7429C160.388 33.3035 160.202 32.9436 159.839 32.6633C159.475 32.3754 158.914 32.1557 158.157 32.0042L155.134 31.402C153.43 31.061 152.161 30.4701 151.327 29.6292C150.502 28.7883 150.089 27.7163 150.089 26.4133C150.089 25.2921 150.392 24.3262 150.998 23.5156C151.611 22.705 152.471 22.08 153.577 21.6406C154.691 21.2012 155.994 20.9815 157.486 20.9815C159.691 20.9815 161.426 21.4474 162.691 22.3792C163.964 23.311 164.706 24.58 164.918 26.186ZM179.557 31.2315V21.2088H184.398V38.6633H179.751V35.4929H179.569C179.175 36.5156 178.519 37.3376 177.603 37.9588C176.694 38.58 175.584 38.8906 174.273 38.8906C173.107 38.8906 172.08 38.6254 171.194 38.0951C170.307 37.5648 169.614 36.811 169.114 35.8338C168.622 34.8565 168.372 33.686 168.364 32.3224V21.2088H173.205V31.4588C173.213 32.4891 173.489 33.3035 174.035 33.902C174.58 34.5004 175.311 34.7997 176.228 34.7997C176.811 34.7997 177.357 34.6671 177.864 34.402C178.372 34.1292 178.781 33.7277 179.091 33.1974C179.41 32.6671 179.565 32.0118 179.557 31.2315ZM188.27 38.6633V21.2088H192.884V24.2883H193.089C193.452 23.2656 194.058 22.4588 194.907 21.8679C195.755 21.277 196.77 20.9815 197.952 20.9815C199.149 20.9815 200.168 21.2807 201.009 21.8792C201.85 22.4701 202.411 23.2732 202.691 24.2883H202.873C203.229 23.2883 203.873 22.4891 204.805 21.8906C205.744 21.2845 206.854 20.9815 208.134 20.9815C209.763 20.9815 211.085 21.5004 212.1 22.5383C213.123 23.5686 213.634 25.0307 213.634 26.9247V38.6633H208.805V27.8792C208.805 26.9095 208.547 26.1823 208.032 25.6974C207.517 25.2126 206.873 24.9701 206.1 24.9701C205.221 24.9701 204.536 25.2504 204.043 25.811C203.551 26.3641 203.305 27.0951 203.305 28.0042V38.6633H198.611V27.777C198.611 26.9209 198.365 26.2391 197.873 25.7315C197.388 25.2239 196.748 24.9701 195.952 24.9701C195.414 24.9701 194.93 25.1065 194.498 25.3792C194.073 25.6444 193.736 26.0194 193.486 26.5042C193.236 26.9815 193.111 27.5421 193.111 28.186V38.6633H188.27ZM225.412 39.0042C223.617 39.0042 222.072 38.6406 220.776 37.9133C219.488 37.1785 218.496 36.1406 217.799 34.7997C217.102 33.4512 216.753 31.8565 216.753 30.0156C216.753 28.2201 217.102 26.6444 217.799 25.2883C218.496 23.9323 219.477 22.8754 220.742 22.1179C222.015 21.3603 223.507 20.9815 225.219 20.9815C226.371 20.9815 227.443 21.1671 228.435 21.5383C229.435 21.902 230.306 22.4512 231.049 23.186C231.799 23.9209 232.382 24.8451 232.799 25.9588C233.216 27.0648 233.424 28.3603 233.424 29.8451V31.1747H218.685V28.1747H228.867C228.867 27.4777 228.716 26.8603 228.412 26.3224C228.109 25.7845 227.689 25.3641 227.151 25.061C226.621 24.7504 226.003 24.5951 225.299 24.5951C224.564 24.5951 223.912 24.7656 223.344 25.1065C222.784 25.4398 222.344 25.8906 222.026 26.4588C221.708 27.0194 221.545 27.6444 221.537 28.3338V31.186C221.537 32.0497 221.697 32.7959 222.015 33.4247C222.341 34.0535 222.799 34.5383 223.39 34.8792C223.981 35.2201 224.681 35.3906 225.492 35.3906C226.03 35.3906 226.522 35.3148 226.969 35.1633C227.416 35.0118 227.799 34.7845 228.117 34.4815C228.435 34.1785 228.678 33.8073 228.844 33.3679L233.322 33.6633C233.094 34.7391 232.628 35.6785 231.924 36.4815C231.227 37.277 230.325 37.8982 229.219 38.3451C228.121 38.7845 226.852 39.0042 225.412 39.0042Z" fill="#4832D5"/>
<path d="M240.685 38.6633H235.412L243.447 15.3906H249.787L257.81 38.6633H252.537L246.708 20.7088H246.526L240.685 38.6633ZM240.356 29.5156H252.81V33.3565H240.356V29.5156ZM265.532 15.3906V38.6633H260.611V15.3906H265.532Z" fill="black"/>
</svg>
